<svg xmlns="http://www.w3.org/2000/svg" width="70" height="70" viewBox="0 0 70 70" fill="none" class=" replaced-svg">
<path d="M10.5 19.9H8.5V32.9H10.5V19.9Z" fill="#161616"></path>
<path d="M19 8.59998H17V32.8H19V8.59998Z" fill="#161616"></path>
<path d="M27.5 13H25.5V32.9H27.5V13Z" fill="#161616"></path>
<path d="M36 0H34V32.8H36V0Z" fill="#161616"></path>
<path d="M44.5 13H42.5V32.9H44.5V13Z" fill="#161616"></path>
<path d="M53 8.59998H51V32.8H53V8.59998Z" fill="#161616"></path>
<path d="M61.5 19.9H59.5V32.9H61.5V19.9Z" fill="#161616"></path>
<path d="M70 26.8H68V32.8H70V26.8Z" fill="#161616"></path>
<path d="M2 25.9H0V32.8H2V25.9Z" fill="#161616"></path>
<path d="M61.5 37.2H59.5V50.2H61.5V37.2Z" fill="#161616"></path>
<path d="M53 37.2H51V61.4H53V37.2Z" fill="#161616"></path>
<path d="M44.5 37.2H42.5V57.0999H44.5V37.2Z" fill="#161616"></path>
<path d="M36 37.2H34V70H36V37.2Z" fill="#161616"></path>
<path d="M27.5 37.2H25.5V57.0999H27.5V37.2Z" fill="#161616"></path>
<path d="M19 37.2H17V61.4H19V37.2Z" fill="#161616"></path>
<path d="M10.5 37.2H8.5V49.2999H10.5V37.2Z" fill="#161616"></path>
<path d="M2 37.2H0V44.0999H2V37.2Z" fill="#161616"></path>
<path d="M70 37.2H68V43.2H70V37.2Z" fill="#161616"></path>
</svg>