<svg xmlns="http://www.w3.org/2000/svg" width="70" height="70" viewBox="0 0 70 70" fill="none" class=" replaced-svg">
<path d="M30.0001 70L29.7001 69.9C29.1001 69.7 14.3001 64.2 4.70012 49.6C-0.49988 41.6 -0.0998802 27.7 0.20012 16.5C0.30012 14.2 0.30012 12 0.30012 10.1V9.6L0.60012 9.3C9.90012 0.400001 26.1001 0 29.3001 0H30.8001C34.0001 0 50.2001 0.400001 59.5001 9.3L59.8001 9.6V10C59.8001 11.9 59.9001 14.1 59.9001 16.4C60.2001 27.6 60.6001 41.5 55.4001 49.5C45.8001 64.1 31.0001 69.6 30.4001 69.8L30.0001 70ZM2.30012 10.5C2.30012 12.3 2.20012 14.4 2.20012 16.6C1.90012 26.9 1.50012 41 6.40012 48.5C14.8001 61.3 27.7001 67 30.0001 67.9C32.3001 67 45.2001 61.4 53.6001 48.5C58.5001 41.1 58.1001 26.9 57.8001 16.6C57.7001 14.4 57.7001 12.4 57.7001 10.5C48.9001 2.4 33.7001 2 30.7001 2H29.2001C26.3001 2 11.1001 2.4 2.30012 10.5Z" fill="#161616"></path>
<path d="M30 52.9999C22.7 52.9999 17 47.1999 17 39.7999C17 30.7999 28.7 15.0999 29.2 14.3999C29.6 13.8999 30.4 13.8999 30.8 14.3999C31.3 15.0999 43 30.6999 43 39.7999C43 46.7999 36.9 52.9999 30 52.9999ZM30 16.6999C27.3 20.3999 19 32.6999 19 39.7999C19 45.9999 23.8 50.9999 30 50.9999C35.9 50.9999 41 45.7999 41 39.7999C41 32.6999 32.7 20.3999 30 16.6999Z" fill="#161616"></path>
<path d="M31 47H30C25.5 47 22 43.5 22 39V38H24V39C24 42.4 26.6 45 30 45H31V47Z" fill="#161616"></path>
</svg>