<svg xmlns="http://www.w3.org/2000/svg" xmlns:xlink="http://www.w3.org/1999/xlink" version="1.1" id="Layer_1" x="0px" y="0px" width="70" height="70" viewBox="0 0 70.2 70" style="enable-background:new 0 0 70.2 70;" xml:space="preserve" class=" replaced-svg">
<style type="text/css">
	.st0{fill:none;stroke:#161616;stroke-width:2;stroke-miterlimit:10;}
</style>
<g id="Layer_2_1_">
	<g id="Icons">
		<path class="st0" d="M45.7,68.1h-0.5c-12.6,0-22.9-10.2-22.9-22.9s10.2-22.9,22.9-22.9h0.5c12.6,0,22.9,10.2,22.9,22.9    S58.4,68.1,45.7,68.1z"></path>
		<path class="st0" d="M8.7,24.3h19.5"></path>
		<path class="st0" d="M8.7,15.5h19.5"></path>
		<path class="st0" d="M8.7,6.8h19.5"></path>
		<path class="st0" d="M8.7,33.1h16.6"></path>
		<path class="st0" d="M8.7,41.8h13.6"></path>
		<path class="st0" d="M8.7,50.6h13.6"></path>
		<path class="st0" d="M8.7,59.3h18.5"></path>
		<path class="st0" d="M35,24.8v-18h-7.8V1.9H9.7v4.9H1.9v61.3H35v-2.9"></path>
		<path d="M44.6,47.1c0,2-1.5,3.6-3.5,3.6c-0.1,0-0.2,0-0.3,0c-1.9,0.2-3.6-1.2-3.7-3.1c0-0.1,0-0.2,0-0.4c-0.1-1.2,0.6-2.4,1.7-2.9    c-0.9-0.5-1.4-1.4-1.4-2.4c0-1.8,1.4-3.3,3.3-3.3c0.1,0,0.2,0,0.2,0c1.8-0.1,3.3,1.2,3.4,3c0,0.1,0,0.2,0,0.2    c0,0.6-0.2,1.2-0.5,1.7c-0.2,0.3-0.5,0.6-0.9,0.8C44.1,44.8,44.7,45.9,44.6,47.1z M39.2,47.1c0,0.9,0.7,1.6,1.6,1.5c0,0,0,0,0,0    c0.9,0,1.6-0.7,1.6-1.6c0-0.9-0.7-1.6-1.6-1.6C40,45.4,39.2,46.1,39.2,47.1C39.2,47,39.2,47,39.2,47.1L39.2,47.1z M39.4,42    c0,0.8,0.6,1.4,1.4,1.4c0.8,0,1.5-0.6,1.5-1.4c0-0.8-0.7-1.4-1.5-1.4C40.1,40.5,39.5,41.1,39.4,42C39.4,41.9,39.4,41.9,39.4,42    L39.4,42z"></path>
		<path d="M48.6,43.2c0.5-0.7,1.3-1.2,2.2-1.2c0.7,0,1.4,0.3,1.9,0.7c0.6,0.6,0.8,1.5,0.7,2.3v5.3h-2.2v-5c0-0.9-0.5-1.5-1.2-1.5    c-0.4,0-0.7,0.2-1,0.4c-0.3,0.3-0.5,0.8-0.5,1.3v4.9h-2.3V38.8h2.2V43.2z"></path>
	</g>
</g>
</svg>