<svg xmlns="http://www.w3.org/2000/svg" width="70" height="70" viewBox="0 0 70 70" fill="none" class=" replaced-svg">
<g clip-path="url(#clip0)">
<path d="M68.9998 59.3C67.7998 57.5 63.5998 53.6 50.8998 54.9C51.4998 51.7 52.7998 48.6 54.4998 46.1C55.1998 46.8 56.0998 47.3 56.9998 47.3C57.5998 47.3 58.5998 47.1 59.2998 45.7C67.6998 29.4 62.5998 12.6 53.1998 4.50004C47.1998 -0.69996 40.2998 -1.49996 34.7998 2.40004C30.4998 5.50004 28.5998 12.1 29.2998 22.1C29.7998 29.3 35.0998 32.2 35.3998 32.3L49.0998 39C50.2998 39.6 51.5998 39.8 52.7998 39.8C52.1998 41.1 52.3998 42.8 53.2998 44.5C51.1998 47.4 49.5998 51.3 48.8998 55.2H48.7998C33.0998 57.4 23.4998 56.2 19.5998 51.6C17.2998 48.9 16.9998 44.7 18.4998 39.3C18.8998 39.5 19.1998 39.6 19.6998 39.6C20.1998 39.6 20.9998 39.4 21.5998 38.3C27.4998 26.8 23.8998 15 17.2998 9.30004C12.8998 5.70004 7.99977 5.10004 3.99977 7.90004C0.899772 10.1 -0.400228 14.8 0.0997721 21.8C0.299772 25 1.79977 27 2.99977 28.1C2.99977 28.3 2.99977 28.5 2.99977 28.7C2.99977 31.7 5.49977 34.1 8.59977 34.1C9.49977 34.1 10.2998 33.9 10.9998 33.5C12.2998 34.9 14.1998 35.8 16.2998 35.9C16.3998 36.4 16.5998 36.9 16.7998 37.4C16.7998 37.5 16.8998 37.5 16.8998 37.6C14.7998 44.2 15.1998 49.3 18.0998 52.8C23.7998 59.6 38.0998 58.6 48.5998 57.2C48.3998 59.8 48.6998 62.4 49.5998 64.6C50.9998 67.8 53.6998 69.6 57.2998 69.9C57.8998 69.9 58.4998 70 58.9998 70C64.3998 70 67.7998 67.7 69.1998 65.3C70.2998 63.4 70.2998 61.2 68.9998 59.3ZM49.9998 37.2L36.3998 30.5C36.1998 30.4 31.7998 28 31.3998 21.9C30.6998 12.7 32.2998 6.70004 35.9998 4.10004C40.6998 0.80004 46.6998 1.50004 51.9998 6.10004C63.4998 16 63.4998 33.5 57.5998 44.9C57.3998 45.3 57.1998 45.4 56.9998 45.4C56.4998 45.4 55.6998 44.7 54.9998 43.5C54.3998 42.3 54.1998 41.1 54.6998 40.4C54.8998 40 55.0998 39.6 55.1998 39.3C56.8998 38.7 58.3998 37.4 59.2998 35.7C60.1998 33.9 60.3998 31.9 59.6998 30C59.3998 29.2 59.0998 28.5 58.5998 27.8C59.4998 15.5 51.6998 5.50004 43.6998 3.90004C39.0998 2.90004 35.4998 5.10004 33.8998 9.60004C32.3998 13.8 33.0998 16.7 35.8998 18C38.7998 19.4 54.9998 27.3 54.9998 27.3C56.3998 28 57.3998 29.1 57.7998 30.5C58.2998 31.9 58.0998 33.3 57.4998 34.6C56.1998 37.5 52.7998 38.6 49.9998 37.2ZM56.6998 26.1C56.4998 25.9 56.1998 25.8 55.8998 25.7C55.8998 25.7 39.6998 17.8 36.7998 16.4C35.5998 15.8 34.3998 14.6 35.7998 10.4C37.0998 6.70004 39.5998 5.80004 41.5998 5.80004C42.1998 5.80004 42.7998 5.90004 43.2998 6.00004C52.1998 7.70004 56.5998 18.3 56.6998 26.1ZM19.5998 37.7C19.4998 37.7 18.8998 37.4 18.4998 36.6C18.3998 36.4 18.2998 36.1 18.1998 35.9C19.1998 35.7 20.0998 35.3 20.8998 34.8C20.5998 35.8 20.1998 36.7 19.6998 37.6C19.6998 37.6 19.5998 37.7 19.5998 37.7ZM2.09977 21.7C1.69977 15.5 2.69977 11.3 5.19977 9.50004C8.29977 7.30004 12.3998 7.80004 15.8998 10.9C19.7998 14.3 21.7998 19 22.2998 23.8C21.7998 23.2 21.0998 22.7 20.3998 22.3C19.2998 15.2 14.5998 10.3 10.0998 9.60004C7.39977 9.20004 5.09977 10.5 4.29977 13.1C3.89977 14.3 2.79977 17.8 5.89977 19.3C6.79977 19.8 9.59977 21.2 12.2998 22.7C11.7998 23 11.3998 23.4 10.9998 23.8C10.2998 23.4 9.39977 23.2 8.49977 23.2C6.49977 23.2 4.69977 24.3 3.69977 25.9C2.99977 25 2.19977 23.6 2.09977 21.7ZM14.5998 21.6C11.5998 20 7.89977 18 6.79977 17.5C5.89977 17.1 5.49977 16.2 6.29977 13.7C6.89977 11.9 8.09977 11.5 9.19977 11.5C9.39977 11.5 9.69977 11.5 9.89977 11.6C12.8998 12.1 16.9998 15.5 18.2998 21.5C17.7998 21.4 17.1998 21.3 16.6998 21.3C15.8998 21.3 15.1998 21.4 14.5998 21.6ZM5.09977 29.5C5.19977 29.5 5.09977 29.4 5.09977 29.3C5.09977 29.5 5.09977 29.5 5.09977 29.1C5.09977 29.1 5.09977 29.2 5.09977 29.3C5.09977 29.1 5.09977 28.8 4.99977 28.7C4.99977 28.5 4.99977 28.3 4.99977 28.1C4.99977 27.8 5.09977 27.6 5.09977 27.3C5.59977 26 6.89977 25.1 8.39977 25.1C10.3998 25.1 11.9998 26.6 11.9998 28.5C11.9998 30.4 10.3998 31.9 8.39977 31.9C6.79977 32.1 5.39977 31 5.09977 29.5ZM12.5998 32.3C13.4998 31.3 14.0998 30 14.0998 28.6C14.0998 27.2 13.4998 25.9 12.5998 24.9C13.5998 23.9 14.9998 23.2 16.5998 23.2C19.6998 23.2 22.1998 25.6 22.1998 28.5C22.1998 31.4 19.6998 34 16.5998 34C14.9998 34 13.5998 33.4 12.5998 32.3ZM67.3998 64.3C66.1998 66.3 62.8998 68.4 57.3998 67.9C54.4998 67.7 52.4998 66.3 51.3998 63.8C50.4998 61.9 50.2998 59.5 50.5998 57C62.9998 55.6 66.5998 59.3 67.3998 60.5C68.1998 61.7 68.1998 63 67.3998 64.3Z" fill="#161616"></path>
</g>
<defs>
<clipPath id="clip0">
<rect width="70" height="70" fill="white"></rect>
</clipPath>
</defs>
</svg>