<svg xmlns="http://www.w3.org/2000/svg" width="70" height="70" viewBox="0 0 70 70" fill="none" class=" replaced-svg">
<path d="M31.3 70H5C2.2 70 0 67.8 0 65V11.1C0 8.29998 2.2 6.09998 5 6.09998H19.3V8.09998H5C3.3 8.09998 2 9.39998 2 11.1V65C2 66.7 3.3 68 5 68H31.3V70Z" fill="#161616"></path>
<path d="M47 70H25C21.7 70 19 67.2961 19 63.9914V6.00858C19 2.70386 21.7 0 25 0H47C50.3 0 53 2.70386 53 6.00858V14.8212H51V6.00858C51 3.80544 49.2 2.00286 47 2.00286H25C22.8 2.00286 21 3.80544 21 6.00858V63.9914C21 66.1946 22.8 67.9971 25 67.9971H47V70Z" fill="#161616"></path>
<path d="M65 70H45C42.2 70 40 67.7961 40 64.9912V18.0088C40 15.2039 42.2 13 45 13H65C67.8 13 70 15.2039 70 18.0088V64.9912C70 67.7961 67.8 70 65 70ZM45 15.0035C43.3 15.0035 42 16.3058 42 18.0088V64.9912C42 66.6942 43.3 67.9965 45 67.9965H65C66.7 67.9965 68 66.6942 68 64.9912V18.0088C68 16.3058 66.7 15.0035 65 15.0035H45Z" fill="#161616"></path>
<path d="M65 64.9H45C42.2 64.9 40 62.7 40 59.9V23C40 20.2 42.2 18 45 18H65C67.8 18 70 20.2 70 23V60C70 62.7 67.8 64.9 65 64.9ZM45 20C43.3 20 42 21.3 42 23V60C42 61.7 43.3 63 45 63H65C66.7 63 68 61.7 68 60V23C68 21.3 66.7 20 65 20H45Z" fill="#161616"></path>
<path d="M15 65.9C13.3 65.9 12 64.6 12 62.9C12 61.2 13.3 59.9 15 59.9C16.7 59.9 18 61.2 18 62.9C18 64.6 16.6 65.9 15 65.9ZM15 61.9C14.4 61.9 14 62.3 14 62.9C14 63.5 14.4 63.9 15 63.9C15.6 63.9 16 63.5 16 62.9C16 62.3 15.5 61.9 15 61.9Z" fill="#161616"></path>
<path d="M43.2002 1V3C43.2002 4.1 42.3002 5 41.2002 5H30.2002C29.1002 5 28.2002 4.1 28.2002 3V1" fill="#161616"></path>
</svg>