<svg xmlns="http://www.w3.org/2000/svg" width="70" height="70" viewBox="0 0 70 70" fill="none" class=" replaced-svg">
<g clip-path="url(#clip0)">
<g clip-path="url(#clip1)">
<path d="M46.6998 7.78751C33.5998 -2.19644 18.0998 -2.5958 7.99977 6.58944C-0.000227451 14.0774 -0.400228 28.1548 0.199772 35.9423C0.899772 46.5253 8.59977 50.7185 8.99977 50.9182L29.4998 61.1018C30.8998 61.8007 32.3998 62.2001 33.8998 62.2001C33.9998 62.7991 34.0998 63.3981 34.1998 64.097L36.0998 63.5978C35.9998 63.0986 35.8998 62.5994 35.7998 62.2001C39.2998 61.7009 42.3998 59.6042 44.0998 56.3095C45.3998 53.7137 45.5998 50.8184 44.6998 48.1227C44.3998 47.324 44.0998 46.5253 43.5998 45.8264L44.8998 46.2257C45.1998 45.2273 45.3998 44.2289 45.5998 43.2306L43.5998 42.8312C43.4998 43.6299 43.2998 44.4286 43.0998 45.1275C42.0998 43.7298 40.6998 42.6315 39.1998 41.8328C38.9998 41.733 18.6998 31.6492 14.4998 28.654C10.8998 25.9583 8.89977 21.2659 9.99977 17.8713C11.7998 11.8809 16.3998 8.98559 21.2998 8.08703V8.58623C22.1998 8.48639 23.1998 8.48639 24.0998 8.58623L24.1998 7.78751C25.5998 7.68767 26.8998 7.78751 28.2998 7.98719L27.8998 9.38495C28.7998 9.68446 29.6998 9.98398 30.4998 10.4832L31.3998 8.68607C31.2998 8.68607 31.1998 8.58623 31.0998 8.58623C36.3998 9.88414 41.6998 12.7795 45.9998 17.0726L45.1998 17.472C45.6998 18.2707 46.0998 19.1692 46.5998 20.0678L48.0998 19.3689C52.4998 24.7602 55.4998 31.749 55.4998 40.1355C55.4998 50.3192 52.1998 55.1115 50.2998 57.907L49.9998 58.4062C48.4998 60.7025 49.0998 64.1969 50.4998 66.593C51.6998 68.7895 53.1998 69.9875 54.6998 69.9875C55.4998 69.9875 56.6998 69.5882 57.5998 67.8909C71.6998 40.2354 60.4998 18.2707 46.6998 7.78751ZM55.7998 66.8925C55.5998 67.3917 55.1998 67.8909 54.6998 67.8909C54.0998 67.8909 53.0998 67.192 52.1998 65.4948C51.1998 63.5978 50.5998 60.8023 51.5998 59.3047L51.8998 58.8055C53.9998 55.8103 57.4998 50.7185 57.4998 39.9358C57.4998 20.6668 42.7998 7.98719 28.9998 5.9904C27.5998 5.79072 26.2998 5.69088 24.9998 5.69088C16.5998 5.69088 10.2998 9.88414 7.99977 17.2723C6.69977 21.5654 8.99977 27.0565 13.4998 30.2514C17.6998 33.2466 37.5998 43.1307 38.3998 43.5301C40.4998 44.6283 42.0998 46.4254 42.8998 48.7217C43.5998 50.9182 43.4998 53.3143 42.3998 55.411C40.1998 59.8039 34.7998 61.5012 30.3998 59.3047L9.89977 49.2209C9.79977 49.2209 2.79977 45.3272 2.19977 35.8424C1.79977 29.8521 1.69977 15.2755 9.39977 8.18687C18.6998 -0.499169 33.1998 2.85815e-05 45.4998 9.38495C58.6998 19.3689 69.2998 40.435 55.7998 66.8925Z" fill="#161616"></path>
<path d="M52.3998 37.4399V36.8408H50.3998V37.4399C50.3998 38.2386 50.3998 39.0373 50.2998 39.836L52.2998 39.9358C52.3998 39.1371 52.3998 38.2386 52.3998 37.4399Z" fill="#161616"></path>
<path d="M45 59.5044L46.8 60.4029C47.3 59.5044 47.7 58.6058 48.1 57.6074L46.3 56.8087C45.8 57.7073 45.4 58.6058 45 59.5044Z" fill="#161616"></path>
<path d="M41.5 65.3949L43.2 66.4931C43.8 65.5946 44.3 64.7959 44.8 63.8973L43.1 62.8989C42.6 63.6976 42.1 64.5962 41.5 65.3949Z" fill="#161616"></path>
<path d="M49.5 46.6251L51.5 47.0244C51.7 46.026 51.9 45.0276 52 44.0293L50 43.7297C49.9 44.6283 49.7 45.6267 49.5 46.6251Z" fill="#161616"></path>
<path d="M39.2997 67.6913C38.7997 67.6913 38.2997 67.2919 37.6997 66.6929L36.1997 67.9908C37.0997 69.089 38.1997 69.6881 39.2997 69.6881C39.3997 69.6881 39.5997 69.6881 39.6997 69.6881L39.3997 67.6913C39.3997 67.6913 39.3997 67.6913 39.2997 67.6913Z" fill="#161616"></path>
<path d="M49.5997 53.8136C49.8997 52.8152 50.2997 51.9166 50.4997 50.9182L48.5997 50.3192C48.2997 51.2178 47.9997 52.2162 47.6997 53.1147L49.5997 53.8136Z" fill="#161616"></path>
<path d="M48.0996 23.4623C48.3996 24.3609 48.6996 25.3593 48.9996 26.2578L50.8996 25.7586C50.5996 24.7602 50.2996 23.7618 49.9996 22.8633L48.0996 23.4623Z" fill="#161616"></path>
<path d="M49.7998 30.0517C49.9998 30.9503 50.0998 31.9487 50.1998 32.9471L52.1998 32.7474C52.0998 31.749 51.9998 30.7506 51.7998 29.7522L49.7998 30.0517Z" fill="#161616"></path>
<path d="M35.9998 14.1772L37.3998 12.6797C36.5998 11.9808 35.7998 11.2819 34.9998 10.6829L33.7998 12.2803C34.4998 12.8793 35.2998 13.4784 35.9998 14.1772Z" fill="#161616"></path>
<path d="M40.2 19.3689L41.9 18.3705C41.4 17.4719 40.8 16.6732 40.1 15.7747L38.5 16.9727C39.1 17.7714 39.7 18.4703 40.2 19.3689Z" fill="#161616"></path>
<path d="M46.2994 31.9487C46.1994 30.9503 46.0994 29.852 45.8994 28.8536L43.8994 29.253C44.0994 30.1516 44.1994 31.1499 44.2994 32.1483L46.2994 31.9487Z" fill="#161616"></path>
<path d="M41.8994 22.7634C42.2994 23.662 42.5994 24.5606 42.8994 25.4591L44.7994 24.8601C44.4994 23.8617 44.0994 22.8633 43.6994 21.9647L41.8994 22.7634Z" fill="#161616"></path>
<path d="M46.4994 36.0421H44.4994C44.4994 37.0405 44.3994 37.9391 44.3994 38.9375L46.3994 39.1371C46.3994 38.0389 46.3994 37.0405 46.4994 36.0421Z" fill="#161616"></path>
</g>
</g>
<defs>
<clipPath id="clip0">
<rect width="70" height="70" fill="white"></rect>
</clipPath>
<clipPath id="clip1">
<rect width="64.0985" height="70" fill="white" transform="translate(0.0112305 -0.0124512)"></rect>
</clipPath>
</defs>
</svg>