<svg xmlns="http://www.w3.org/2000/svg" width="70" height="70" viewBox="0 0 70 70" fill="none" class=" replaced-svg">
<path d="M36.2544 42.0931V51.0391H38.5764V38.7811L34.0764 41.1211V43.2631L36.2544 42.0931ZM44.3904 41.1931H48.4044V39.1051H42.2844V46.2151H43.7964C44.2464 45.6391 44.6964 45.4051 45.3264 45.4051C46.3344 45.4051 47.1084 46.2151 47.1084 47.2591C47.1084 48.3031 46.3524 49.0951 45.3444 49.0951C44.5344 49.0951 44.0124 48.6811 43.6704 47.7811L41.6544 48.5371C41.9964 49.3831 42.2124 49.7431 42.6444 50.1931C43.3644 50.8951 44.3364 51.2731 45.4164 51.2731C47.7204 51.2731 49.3584 49.5811 49.3584 47.2051C49.3584 45.0631 47.8644 43.4431 45.8844 43.4431C45.3624 43.4431 44.9484 43.5331 44.3904 43.7671V41.1931ZM53.4444 39.0331H51.1584V51.0391H53.4444V46.0711C53.4444 45.4231 53.5524 45.0991 53.9124 44.7571C54.1824 44.4871 54.5424 44.3431 54.9384 44.3431C55.6944 44.3431 56.1804 44.9371 56.1804 45.8731V51.0391H58.4664V45.5491C58.4664 44.3431 58.2684 43.6951 57.7284 43.1911C57.2424 42.7231 56.4504 42.4171 55.7304 42.4171C54.8304 42.4171 54.1464 42.7771 53.4444 43.6051V39.0331Z" fill="black"></path>
<path d="M45.8 21H45.3C42 21 38.9 21.7 36.1 22.9V5H28.1V0H8V5H0V70H36V68.1C38.8 69.3 42 70 45.2 70H45.7C59.1 70 70 59 70 45.5C70 32 59.1 21 45.8 21ZM10 2H26V5H10V2ZM34 68H2V7H34V23.8C30.4 25.7 27.3 28.6 25 32H8V34H23.8C22.7 36.2 21.8 38.5 21.4 41H8V43H21.1C21 43.8 21 44.7 21 45.5C21 47 21.1 48.5 21.4 50H8V52H21.9C22.6 54.5 23.7 56.9 25.1 59H8V61H26.5C28.6 63.5 31.1 65.7 34 67.2V68ZM45.8 68H45.3C33 68 23 57.9 23 45.5C23 33.1 33 23 45.2 23H45.7C58 23 68 33.1 68 45.5C68 57.9 58 68 45.8 68Z" fill="#161616"></path>
<path d="M28 23H8V25H28V23Z" fill="#161616"></path>
<path d="M28 14H8V16H28V14Z" fill="#161616"></path>
</svg>